<svg width="486" height="128" viewBox="0 0 486 128" fill="none" xmlns="http://www.w3.org/2000/svg">
<rect x="64" width="90" height="90" rx="20" transform="rotate(45 64 0)" fill="url(#paint0_linear)"/>
<rect x="64" y="1.41421" width="88" height="88" rx="19" transform="rotate(45 64 1.41421)" stroke="#5B5B5B" stroke-opacity="0.17" stroke-width="2"/>
<path d="M96.9111 47.5015H82.7559V86H73.2344V47.5015H59.2695V39.7891H96.9111V47.5015Z" fill="white"/>
<path d="M58.0884 73.876C58.0884 72.0775 57.4536 70.7021 56.1841 69.75C54.9146 68.7767 52.6294 67.7611 49.3286 66.7031C46.0278 65.624 43.4147 64.5661 41.4893 63.5293C36.2419 60.694 33.6182 56.8748 33.6182 52.0718C33.6182 49.575 34.3164 47.3534 35.7129 45.4067C37.1305 43.439 39.1512 41.9049 41.7749 40.8047C44.4198 39.7044 47.382 39.1543 50.6616 39.1543C53.9624 39.1543 56.9035 39.7573 59.4849 40.9634C62.0662 42.1483 64.0658 43.8304 65.4834 46.0098C66.9222 48.1891 67.6416 50.6647 67.6416 53.4365H58.1201C58.1201 51.3206 57.4536 49.6808 56.1206 48.5171C54.7876 47.3322 52.915 46.7397 50.5029 46.7397C48.1755 46.7397 46.3664 47.237 45.0757 48.2314C43.785 49.2048 43.1396 50.4954 43.1396 52.1035C43.1396 53.6058 43.8908 54.8647 45.3931 55.8804C46.9165 56.896 49.1488 57.8481 52.0898 58.7368C57.5065 60.366 61.4526 62.3867 63.9282 64.7988C66.4038 67.2109 67.6416 70.2155 67.6416 73.8125C67.6416 77.8115 66.1287 80.9536 63.103 83.2388C60.0773 85.5028 56.0042 86.6348 50.8838 86.6348C47.3291 86.6348 44.0918 85.9894 41.1719 84.6987C38.252 83.3869 36.0197 81.599 34.4751 79.335C32.9517 77.071 32.1899 74.4473 32.1899 71.4639H41.7432C41.7432 76.5632 44.79 79.1128 50.8838 79.1128C53.1478 79.1128 54.9146 78.6579 56.1841 77.748C57.4536 76.8171 58.0884 75.5264 58.0884 73.876Z" fill="white"/>
<path d="M56.1841 69.75L54.9672 71.3372L54.9756 71.3437L54.9841 71.35L56.1841 69.75ZM49.3286 66.7031L48.7071 68.6041L48.7182 68.6077L49.3286 66.7031ZM41.4893 63.5293L40.5385 65.2889L40.5411 65.2902L41.4893 63.5293ZM35.7129 45.4067L34.0901 44.2377L34.0878 44.2409L35.7129 45.4067ZM41.7749 40.8047L41.0067 38.9581L41.0014 38.9603L41.7749 40.8047ZM59.4849 40.9634L58.6383 42.7754L58.6505 42.781L59.4849 40.9634ZM65.4834 46.0098L63.8068 47.1003L63.8143 47.1117L65.4834 46.0098ZM67.6416 53.4365V55.4365H69.6416V53.4365H67.6416ZM58.1201 53.4365H56.1201V55.4365H58.1201V53.4365ZM56.1206 48.5171L54.7919 50.0119L54.7986 50.0178L54.8053 50.0237L56.1206 48.5171ZM45.0757 48.2314L46.2799 49.8283L46.2881 49.8221L46.2964 49.8157L45.0757 48.2314ZM45.3931 55.8804L44.2729 57.5373L44.2837 57.5445L45.3931 55.8804ZM52.0898 58.7368L51.5114 60.6513L51.5138 60.6521L52.0898 58.7368ZM63.103 83.2388L64.3012 84.8401L64.3084 84.8347L63.103 83.2388ZM41.1719 84.6987L40.3522 86.5231L40.3633 86.528L41.1719 84.6987ZM34.4751 79.335L32.8157 80.4515L32.823 80.4621L34.4751 79.335ZM32.1899 71.4639V69.4639H30.1899V71.4639H32.1899ZM41.7432 71.4639H43.7432V69.4639H41.7432V71.4639ZM56.1841 77.748L57.3491 79.3737L57.358 79.3673L57.3668 79.3609L56.1841 77.748ZM60.0884 73.876C60.0884 71.544 59.2294 69.534 57.3841 68.15L54.9841 71.35C55.6778 71.8703 56.0884 72.611 56.0884 73.876H60.0884ZM57.4009 68.1628C55.8371 66.9638 53.2638 65.8642 49.9391 64.7986L48.7182 68.6077C51.995 69.6579 53.992 70.5896 54.9672 71.3372L57.4009 68.1628ZM49.9501 64.8021C46.7047 63.7411 44.216 62.726 42.4375 61.7684L40.5411 65.2902C42.6134 66.4061 45.3509 67.5069 48.7071 68.6041L49.9501 64.8021ZM42.44 61.7697C37.6542 59.1839 35.6182 55.9516 35.6182 52.0718H31.6182C31.6182 57.7981 34.8295 62.2041 40.5385 65.2889L42.44 61.7697ZM35.6182 52.0718C35.6182 49.9745 36.196 48.1644 37.338 46.5726L34.0878 44.2409C32.4368 46.5423 31.6182 49.1756 31.6182 52.0718H35.6182ZM37.3356 46.5758C38.5029 44.9555 40.2049 43.6318 42.5484 42.6491L41.0014 38.9603C38.0975 40.1781 35.7582 41.9224 34.0902 44.2377L37.3356 46.5758ZM42.5431 42.6513C44.9118 41.6659 47.6077 41.1543 50.6616 41.1543V37.1543C47.1562 37.1543 43.9277 37.743 41.0067 38.9581L42.5431 42.6513ZM50.6616 41.1543C53.716 41.1543 56.3608 41.7113 58.6383 42.7754L60.3314 39.1514C57.4462 37.8033 54.2088 37.1543 50.6616 37.1543V41.1543ZM58.6505 42.781C60.9211 43.8233 62.6145 45.2672 63.8069 47.1003L67.1599 44.9192C65.517 42.3936 63.2114 40.4733 60.3192 39.1457L58.6505 42.781ZM63.8143 47.1117C65.0238 48.9436 65.6416 51.0312 65.6416 53.4365H69.6416C69.6416 50.2982 68.8206 47.4347 67.1525 44.9079L63.8143 47.1117ZM67.6416 51.4365H58.1201V55.4365H67.6416V51.4365ZM60.1201 53.4365C60.1201 50.867 59.2893 48.6285 57.4359 47.0105L54.8053 50.0237C55.6179 50.7332 56.1201 51.7743 56.1201 53.4365H60.1201ZM57.4493 47.0223C55.638 45.4122 53.2305 44.7397 50.5029 44.7397V48.7397C52.5996 48.7397 53.9372 49.2522 54.7919 50.0119L57.4493 47.0223ZM50.5029 44.7397C47.9177 44.7397 45.6176 45.2891 43.855 46.6472L46.2964 49.8157C47.1152 49.1848 48.4332 48.7397 50.5029 48.7397V44.7397ZM43.8715 46.6346C42.0828 47.9835 41.1396 49.8639 41.1396 52.1035H45.1396C45.1396 51.127 45.4872 50.426 46.2799 49.8283L43.8715 46.6346ZM41.1396 52.1035C41.1396 54.4131 42.3508 56.2378 44.2729 57.5373L46.5132 54.2235C45.4308 53.4917 45.1396 52.7985 45.1396 52.1035H41.1396ZM44.2837 57.5445C46.0443 58.7183 48.4911 59.7387 51.5114 60.6513L52.6683 56.8223C49.8064 55.9576 47.7887 55.0737 46.5025 54.2163L44.2837 57.5445ZM51.5138 60.6521C56.7962 62.2409 60.3894 64.1431 62.5325 66.2313L65.324 63.3664C62.5159 60.6303 58.2168 58.4912 52.6659 56.8216L51.5138 60.6521ZM62.5325 66.2313C64.6045 68.2501 65.6416 70.7304 65.6416 73.8125H69.6416C69.6416 69.7006 68.2032 66.1717 65.324 63.3664L62.5325 66.2313ZM65.6416 73.8125C65.6416 77.2244 64.3919 79.7591 61.8977 81.6428L64.3084 84.8347C67.8656 82.1481 69.6416 78.3987 69.6416 73.8125H65.6416ZM61.9048 81.6374C59.3292 83.5646 55.7236 84.6348 50.8838 84.6348V88.6348C56.2848 88.6348 60.8254 87.4409 64.3012 84.8401L61.9048 81.6374ZM50.8838 84.6348C47.5759 84.6348 44.6182 84.0354 41.9805 82.8695L40.3633 86.528C43.5654 87.9434 47.0823 88.6348 50.8838 88.6348V84.6348ZM41.9915 82.8744C39.3507 81.6879 37.4311 80.119 36.1272 78.2078L32.823 80.4621C34.6083 83.0789 37.1532 85.0858 40.3522 86.5231L41.9915 82.8744ZM36.1344 78.2184C34.8537 76.3152 34.1899 74.0882 34.1899 71.4639H30.1899C30.1899 74.8063 31.0496 77.8267 32.8158 80.4515L36.1344 78.2184ZM32.1899 73.4639H41.7432V69.4639H32.1899V73.4639ZM39.7432 71.4639C39.7432 74.4247 40.6447 76.977 42.7448 78.7344C44.7767 80.4347 47.6069 81.1128 50.8838 81.1128V77.1128C48.067 77.1128 46.3268 76.5161 45.3118 75.6667C44.3651 74.8745 43.7432 73.6024 43.7432 71.4639H39.7432ZM50.8838 81.1128C53.3857 81.1128 55.6182 80.6142 57.3491 79.3737L55.019 76.1224C54.2109 76.7016 52.9099 77.1128 50.8838 77.1128V81.1128ZM57.3668 79.3609C59.1786 78.0322 60.0884 76.1273 60.0884 73.876H56.0884C56.0884 74.9254 55.7287 75.6019 55.0014 76.1352L57.3668 79.3609Z" fill="#759FEB"/>
<path d="M169.928 73.8086C169.928 72.1484 169.342 70.8789 168.17 70C166.998 69.1016 164.889 68.1641 161.842 67.1875C158.795 66.1914 156.383 65.2148 154.605 64.2578C149.762 61.6406 147.34 58.1152 147.34 53.6816C147.34 51.377 147.984 49.3262 149.273 47.5293C150.582 45.7129 152.447 44.2969 154.869 43.2812C157.311 42.2656 160.045 41.7578 163.072 41.7578C166.119 41.7578 168.834 42.3145 171.217 43.4277C173.6 44.5215 175.445 46.0742 176.754 48.0859C178.082 50.0977 178.746 52.3828 178.746 54.9414H169.957C169.957 52.9883 169.342 51.4746 168.111 50.4004C166.881 49.3066 165.152 48.7598 162.926 48.7598C160.777 48.7598 159.107 49.2188 157.916 50.1367C156.725 51.0352 156.129 52.2266 156.129 53.7109C156.129 55.0977 156.822 56.2598 158.209 57.1973C159.615 58.1348 161.676 59.0137 164.391 59.834C169.391 61.3379 173.033 63.2031 175.318 65.4297C177.604 67.6562 178.746 70.4297 178.746 73.75C178.746 77.4414 177.35 80.3418 174.557 82.4512C171.764 84.541 168.004 85.5859 163.277 85.5859C159.996 85.5859 157.008 84.9902 154.312 83.7988C151.617 82.5879 149.557 80.9375 148.131 78.8477C146.725 76.7578 146.021 74.3359 146.021 71.582H154.84C154.84 76.2891 157.652 78.6426 163.277 78.6426C165.367 78.6426 166.998 78.2227 168.17 77.3828C169.342 76.5234 169.928 75.332 169.928 73.8086ZM191.603 45.5078V53.3008H197.023V59.5117H191.603V75.332C191.603 76.5039 191.827 77.3438 192.277 77.8516C192.726 78.3594 193.585 78.6133 194.855 78.6133C195.792 78.6133 196.622 78.5449 197.345 78.4082V84.8242C195.685 85.332 193.976 85.5859 192.218 85.5859C186.28 85.5859 183.253 82.5879 183.136 76.5918V59.5117H178.507V53.3008H183.136V45.5078H191.603ZM218.024 81.7773C215.934 84.3164 213.043 85.5859 209.352 85.5859C205.954 85.5859 203.356 84.6094 201.559 82.6562C199.782 80.7031 198.873 77.8418 198.834 74.0723V53.3008H207.301V73.7793C207.301 77.0801 208.805 78.7305 211.813 78.7305C214.684 78.7305 216.657 77.7344 217.731 75.7422V53.3008H226.227V85H218.258L218.024 81.7773ZM228.595 68.916C228.595 63.9746 229.699 60.0391 231.906 57.1094C234.132 54.1797 237.17 52.7148 241.017 52.7148C244.103 52.7148 246.652 53.8672 248.664 56.1719V40H257.16V85H249.513L249.103 81.6309C246.994 84.2676 244.279 85.5859 240.959 85.5859C237.228 85.5859 234.23 84.1211 231.964 81.1914C229.718 78.2422 228.595 74.1504 228.595 68.916ZM237.062 69.5312C237.062 72.5 237.58 74.7754 238.615 76.3574C239.65 77.9395 241.154 78.7305 243.127 78.7305C245.744 78.7305 247.589 77.627 248.664 75.4199V62.9102C247.609 60.7031 245.783 59.5996 243.185 59.5996C239.103 59.5996 237.062 62.9102 237.062 69.5312ZM272.858 73.0176L278.718 53.3008H287.8L275.055 89.9219L274.352 91.5918C272.458 95.7324 269.333 97.8027 264.977 97.8027C263.747 97.8027 262.497 97.6172 261.227 97.2461V90.8301L262.516 90.8594C264.118 90.8594 265.309 90.6152 266.091 90.127C266.891 89.6387 267.516 88.8281 267.966 87.6953L268.962 85.0879L257.858 53.3008H266.97L272.858 73.0176ZM331.589 49.4629H318.523V85H309.734V49.4629H296.843V42.3438H331.589V49.4629ZM349.25 61.2402C348.098 61.084 347.082 61.0059 346.204 61.0059C343 61.0059 340.901 62.0898 339.905 64.2578V85H331.438V53.3008H339.436L339.67 57.0801C341.37 54.1699 343.723 52.7148 346.731 52.7148C347.668 52.7148 348.547 52.8418 349.368 53.0957L349.25 61.2402ZM368.142 85C367.752 84.2383 367.468 83.291 367.293 82.1582C365.242 84.4434 362.576 85.5859 359.295 85.5859C356.189 85.5859 353.611 84.6875 351.56 82.8906C349.529 81.0938 348.513 78.8281 348.513 76.0938C348.513 72.7344 349.754 70.1562 352.234 68.3594C354.734 66.5625 358.337 65.6543 363.045 65.6348H366.941V63.8184C366.941 62.3535 366.56 61.1816 365.798 60.3027C365.056 59.4238 363.875 58.9844 362.254 58.9844C360.828 58.9844 359.705 59.3262 358.884 60.0098C358.084 60.6934 357.683 61.6309 357.683 62.8223H349.216C349.216 60.9863 349.783 59.2871 350.916 57.7246C352.048 56.1621 353.65 54.9414 355.72 54.0625C357.791 53.1641 360.115 52.7148 362.693 52.7148C366.599 52.7148 369.695 53.7012 371.98 55.6738C374.285 57.627 375.437 60.3809 375.437 63.9355V77.6758C375.457 80.6836 375.877 82.959 376.697 84.502V85H368.142ZM361.14 79.1113C362.39 79.1113 363.543 78.8379 364.597 78.291C365.652 77.7246 366.433 76.9727 366.941 76.0352V70.5859H363.777C359.539 70.5859 357.283 72.0508 357.009 74.9805L356.98 75.4785C356.98 76.5332 357.351 77.4023 358.093 78.0859C358.836 78.7695 359.851 79.1113 361.14 79.1113ZM392.425 78.7598C393.987 78.7598 395.257 78.3301 396.233 77.4707C397.21 76.6113 397.718 75.4688 397.757 74.043H405.696C405.677 76.1914 405.091 78.1641 403.938 79.9609C402.786 81.7383 401.204 83.125 399.192 84.1211C397.2 85.0977 394.993 85.5859 392.571 85.5859C388.04 85.5859 384.466 84.1504 381.848 81.2793C379.231 78.3887 377.923 74.4043 377.923 69.3262V68.7695C377.923 63.8867 379.221 59.9902 381.819 57.0801C384.417 54.1699 387.981 52.7148 392.512 52.7148C396.477 52.7148 399.651 53.8477 402.034 56.1133C404.436 58.3594 405.657 61.3574 405.696 65.1074H397.757C397.718 63.4668 397.21 62.1387 396.233 61.123C395.257 60.0879 393.968 59.5703 392.366 59.5703C390.393 59.5703 388.899 60.293 387.884 61.7383C386.887 63.1641 386.389 65.4883 386.389 68.7109V69.5898C386.389 72.8516 386.887 75.1953 387.884 76.6211C388.88 78.0469 390.393 78.7598 392.425 78.7598ZM419.344 72.2852L416.297 75.332V85H407.83V40H416.297V64.9316L417.938 62.8223L426.053 53.3008H436.219L424.764 66.5137L437.215 85H427.488L419.344 72.2852ZM451.185 85.5859C446.536 85.5859 442.747 84.1602 439.818 81.3086C436.907 78.457 435.452 74.6582 435.452 69.9121V69.0918C435.452 65.9082 436.068 63.0664 437.298 60.5664C438.529 58.0469 440.267 56.1133 442.513 54.7656C444.779 53.3984 447.357 52.7148 450.247 52.7148C454.583 52.7148 457.991 54.082 460.472 56.8164C462.972 59.5508 464.222 63.4277 464.222 68.4473V71.9043H444.036C444.31 73.9746 445.13 75.6348 446.497 76.8848C447.884 78.1348 449.632 78.7598 451.741 78.7598C455.003 78.7598 457.552 77.5781 459.388 75.2148L463.548 79.873C462.279 81.6699 460.56 83.0762 458.392 84.0918C456.224 85.0879 453.821 85.5859 451.185 85.5859ZM450.218 59.5703C448.538 59.5703 447.171 60.1367 446.116 61.2695C445.081 62.4023 444.417 64.0234 444.124 66.1328H455.902V65.459C455.862 63.584 455.355 62.1387 454.378 61.123C453.402 60.0879 452.015 59.5703 450.218 59.5703ZM484.168 61.2402C483.016 61.084 482 61.0059 481.121 61.0059C477.918 61.0059 475.819 62.0898 474.823 64.2578V85H466.356V53.3008H474.354L474.588 57.0801C476.288 54.1699 478.641 52.7148 481.649 52.7148C482.586 52.7148 483.465 52.8418 484.286 53.0957L484.168 61.2402Z" fill="#5A5A6D"/>
<defs>
<linearGradient id="paint0_linear" x1="132.335" y1="49.2426" x2="20.9652" y2="92.0226" gradientUnits="userSpaceOnUse">
<stop stop-color="#4E91F9"/>
<stop offset="1" stop-color="#C5BCCC"/>
</linearGradient>
</defs>
</svg>
